<svg width="200" height="69" viewBox="0 0 200 69" fill="none" xmlns="http://www.w3.org/2000/svg">
<path d="M108.837 17.8182H110.693V19.8177H108.837V23.14H106.345V19.8177H99.8957L99.824 18.3002L106.263 8.21033H108.837V17.8182ZM102.439 17.8182H106.345V11.5839L106.161 11.912L102.439 17.8182ZM122.075 16.8544C122.075 19.0009 121.672 20.621 120.865 21.7147C120.065 22.8016 118.845 23.3451 117.204 23.3451C115.591 23.3451 114.374 22.8153 113.554 21.7557C112.74 20.6893 112.323 19.1136 112.303 17.0287V14.4447C112.303 12.2982 112.703 10.6884 113.503 9.61511C114.309 8.54187 115.536 8.00525 117.184 8.00525C118.818 8.00525 120.034 8.5282 120.834 9.5741C121.641 10.62 122.054 12.1854 122.075 14.2704V16.8544ZM119.583 14.0653C119.583 12.6639 119.392 11.6385 119.009 10.9891C118.626 10.3329 118.018 10.0048 117.184 10.0048C116.37 10.0048 115.772 10.3158 115.389 10.9379C115.007 11.5531 114.805 12.517 114.784 13.8295V17.2133C114.784 18.6078 114.979 19.6469 115.369 20.3304C115.759 21.014 116.37 21.3558 117.204 21.3558C118.004 21.3558 118.595 21.0414 118.978 20.4125C119.361 19.7767 119.563 18.7855 119.583 17.4388V14.0653ZM130.196 14.9266H134.093V17.203H130.196V21.6429H127.776V17.203H123.859V14.9266H127.776V10.7738H130.196V14.9266Z" fill="white"/>
<path d="M107.299 59.16H105.853V51.9022H101.963V59.16H100.509V50.7069H107.299V59.16ZM116.759 55.0272C116.759 56.3137 116.465 57.3501 115.877 58.1366C115.288 58.9231 114.491 59.3163 113.486 59.3163C112.46 59.3163 111.653 58.9908 111.064 58.3397V62.41H109.619V50.7069H110.939L111.009 51.6444C111.598 50.9152 112.416 50.5507 113.463 50.5507C114.478 50.5507 115.28 50.9335 115.869 51.6991C116.463 52.4647 116.759 53.5298 116.759 54.8944V55.0272ZM115.314 54.8632C115.314 53.91 115.111 53.1574 114.705 52.6053C114.299 52.0533 113.741 51.7772 113.033 51.7772C112.158 51.7772 111.502 52.1652 111.064 52.9413V56.9803C111.496 57.7512 112.158 58.1366 113.049 58.1366C113.741 58.1366 114.291 57.8632 114.697 57.3163C115.108 56.7642 115.314 55.9465 115.314 54.8632ZM118.22 54.8553C118.22 54.0272 118.382 53.2824 118.705 52.621C119.033 51.9595 119.486 51.4491 120.064 51.0897C120.647 50.7303 121.312 50.5507 122.056 50.5507C123.207 50.5507 124.137 50.9491 124.845 51.746C125.559 52.5428 125.916 53.6027 125.916 54.9257V55.0272C125.916 55.8501 125.757 56.5897 125.439 57.246C125.127 57.897 124.676 58.4048 124.088 58.7694C123.504 59.134 122.832 59.3163 122.072 59.3163C120.926 59.3163 119.996 58.9178 119.283 58.121C118.575 57.3241 118.22 56.2694 118.22 54.9569V54.8553ZM119.674 55.0272C119.674 55.9647 119.89 56.7173 120.322 57.285C120.759 57.8527 121.343 58.1366 122.072 58.1366C122.806 58.1366 123.39 57.8501 123.822 57.2772C124.254 56.6991 124.47 55.8918 124.47 54.8553C124.47 53.9283 124.249 53.1783 123.806 52.6053C123.369 52.0272 122.786 51.7382 122.056 51.7382C121.343 51.7382 120.767 52.022 120.33 52.5897C119.892 53.1574 119.674 53.9699 119.674 55.0272ZM131.236 59.3163C130.09 59.3163 129.158 58.9413 128.439 58.1913C127.72 57.4361 127.361 56.4283 127.361 55.1678V54.9022C127.361 54.0637 127.52 53.3163 127.838 52.66C128.161 51.9986 128.608 51.483 129.181 51.1132C129.759 50.7382 130.384 50.5507 131.056 50.5507C132.155 50.5507 133.009 50.9126 133.619 51.6366C134.228 52.3606 134.533 53.397 134.533 54.746V55.3475H128.806C128.827 56.1809 129.069 56.8553 129.533 57.371C130.002 57.8814 130.595 58.1366 131.314 58.1366C131.825 58.1366 132.257 58.0324 132.611 57.8241C132.965 57.6158 133.275 57.3397 133.541 56.996L134.424 57.6835C133.715 58.772 132.653 59.3163 131.236 59.3163ZM131.056 51.7382C130.473 51.7382 129.983 51.9517 129.588 52.3788C129.192 52.8007 128.947 53.3944 128.853 54.16H133.088V54.0507C133.046 53.3163 132.848 52.7486 132.494 52.3475C132.14 51.9413 131.661 51.7382 131.056 51.7382ZM138.845 55.5585H137.791V59.16H136.338V50.7069H137.791V54.285H138.736L141.58 50.7069H143.33L139.986 54.7694L143.611 59.16H141.775L138.845 55.5585ZM151.134 51.8788H148.299V59.16H146.853V51.8788H144.072V50.7069H151.134V51.8788ZM151.83 54.8553C151.83 54.0272 151.991 53.2824 152.314 52.621C152.642 51.9595 153.095 51.4491 153.674 51.0897C154.257 50.7303 154.921 50.5507 155.666 50.5507C156.817 50.5507 157.746 50.9491 158.455 51.746C159.168 52.5428 159.525 53.6027 159.525 54.9257V55.0272C159.525 55.8501 159.366 56.5897 159.049 57.246C158.736 57.897 158.286 58.4048 157.697 58.7694C157.114 59.134 156.442 59.3163 155.681 59.3163C154.536 59.3163 153.606 58.9178 152.892 58.121C152.184 57.3241 151.83 56.2694 151.83 54.9569V54.8553ZM153.283 55.0272C153.283 55.9647 153.499 56.7173 153.931 57.285C154.369 57.8527 154.952 58.1366 155.681 58.1366C156.416 58.1366 156.999 57.8501 157.431 57.2772C157.864 56.6991 158.08 55.8918 158.08 54.8553C158.08 53.9283 157.858 53.1783 157.416 52.6053C156.978 52.0272 156.395 51.7382 155.666 51.7382C154.952 51.7382 154.377 52.022 153.939 52.5897C153.502 53.1574 153.283 53.9699 153.283 55.0272ZM161.47 59.16V50.7069H164.767C165.892 50.7069 166.754 50.9048 167.353 51.3007C167.957 51.6913 168.259 52.2668 168.259 53.0272C168.259 53.4178 168.142 53.772 167.908 54.0897C167.674 54.4022 167.327 54.6418 166.869 54.8085C167.379 54.9283 167.788 55.1626 168.095 55.5116C168.408 55.8606 168.564 56.2772 168.564 56.7616C168.564 57.5376 168.278 58.1314 167.705 58.5428C167.137 58.9543 166.332 59.16 165.291 59.16H161.47ZM162.916 55.4491V57.996H165.306C165.911 57.996 166.361 57.884 166.658 57.66C166.96 57.4361 167.111 57.121 167.111 56.7147C167.111 55.871 166.491 55.4491 165.252 55.4491H162.916ZM162.916 54.2928H164.783C166.137 54.2928 166.814 53.897 166.814 53.1053C166.814 52.3137 166.174 51.9048 164.892 51.8788H162.916V54.2928Z" fill="white"/>
<g clip-path="url(#clip0)">
<path d="M69.7398 0H16.5484C15.8957 0 15.3664 0.514911 15.3664 1.15V18.4H17.7305V2.3H68.5578V65.5499C68.5692 66.1546 68.0896 66.6612 67.4692 66.6999C67.3675 66.6999 67.2658 66.6918 67.1642 66.6895C66.955 66.6838 66.7458 66.6792 66.5401 66.6585C66.5223 66.6585 66.5058 66.6585 66.4881 66.6516C62.6276 66.241 59.5781 63.277 59.1524 59.5216C59.1524 59.5055 59.1465 59.4882 59.1441 59.4721C59.1154 59.1989 59.1013 58.9244 59.1016 58.6499V56.3499C59.1016 55.7148 58.5723 55.1999 57.9195 55.1999H17.7305V34.4999H15.3664V55.1999H5.91017C5.25739 55.1999 4.72813 55.7148 4.72813 56.3499V58.6499C4.73464 64.3633 9.49379 68.9935 15.3664 68.9999H67.494C69.4121 68.951 70.9366 67.4166 70.9219 65.5499V1.15C70.9219 0.514911 70.3926 0 69.7398 0ZM15.3664 66.6999C10.7989 66.6948 7.09737 63.0936 7.0922 58.6499V57.4999H56.7375V58.6499C56.7391 59.0291 56.7616 59.408 56.8049 59.7849C56.8155 59.885 56.8356 59.9816 56.8498 60.0805C56.8888 60.3588 56.9361 60.6359 56.9987 60.9085C57.02 61.0039 57.0472 61.0982 57.072 61.1937C57.1441 61.4708 57.2257 61.7434 57.3202 62.0125C57.3474 62.0895 57.3758 62.1654 57.4053 62.2425C57.5129 62.5277 57.6347 62.806 57.7682 63.0808C57.7966 63.1372 57.8226 63.1958 57.851 63.2476C57.9992 63.5389 58.1618 63.8221 58.3391 64.0974C58.3628 64.1342 58.3841 64.1722 58.4077 64.2124C58.6004 64.5061 58.8084 64.7901 59.0306 65.0634L59.0685 65.1129C59.3264 65.4281 59.6027 65.7287 59.8959 66.0133C60.1505 66.2587 60.4143 66.4887 60.6878 66.7033L15.3664 66.6999Z" fill="white"/>
<path d="M39.007 32.1999C39.3206 32.1999 39.6211 32.0786 39.8427 31.863L44.5708 27.263C45.0323 26.8139 45.0323 26.086 44.5708 25.6369L39.8427 21.0369C39.6211 20.8213 39.3206 20.7 39.007 20.7H5.91015C2.64612 20.7 0 23.2744 0 26.4499C0 29.6255 2.64612 32.1999 5.91015 32.1999H39.007ZM38.7021 23.1793L42.0638 26.4499L38.7021 29.7205L37.8616 26.4499L38.7021 23.1793ZM9.45625 22.9999H36.312L35.721 25.2999H11.8203V27.5999H35.721L36.312 29.8999H9.45625V22.9999ZM2.36406 26.4499C2.36406 24.5445 3.95168 22.9999 5.91015 22.9999H7.09219V29.8999H5.91015C3.95168 29.8999 2.36406 28.3553 2.36406 26.4499Z" fill="white"/>
<path d="M27.1868 49.4499H62.6477C63.3005 49.4499 63.8297 48.935 63.8297 48.2999V13.8C63.8296 13.1649 63.3003 12.6501 62.6474 12.6503C62.334 12.6503 62.0336 12.7714 61.812 12.9869L26.3511 47.4869C25.8895 47.9361 25.8896 48.6642 26.3513 49.1132C26.573 49.3287 26.8734 49.4499 27.1868 49.4499ZM61.4656 16.5761V19.55H59.1016V21.85H61.4656V24.15H59.1016V26.45H61.4656V28.7499H59.1016V31.0499H61.4656V33.3499H59.1016V35.6499H61.4656V37.9499H59.1016V40.2499H61.4656V42.5499H59.1016V44.8499H61.4656V47.1499H59.1016V44.8499H56.7375V47.1499H54.3735V44.8499H52.0094V47.1499H49.6453V44.8499H47.2813V47.1499H44.9172V44.8499H42.5532V47.1499H40.1891V44.8499H37.825V47.1499H35.461V44.8499H33.0969V47.1499H30.0402L61.4656 16.5761Z" fill="white"/>
<path d="M44.3084 42.5499H55.5555C56.2083 42.5499 56.7375 42.035 56.7375 41.3999V30.4577C56.7374 29.8226 56.2081 29.3078 55.5552 29.308C55.2418 29.308 54.9414 29.4292 54.7198 29.6446L43.4727 40.5869C43.0111 41.0361 43.0113 41.7642 43.473 42.2133C43.6947 42.4287 43.995 42.5499 44.3084 42.5499ZM54.3734 33.2349V40.2499H47.163L54.3734 33.2349Z" fill="white"/>
<path d="M54.3734 6.89996H30.7328V9.19996H54.3734V6.89996Z" fill="white"/>
<path d="M57.9195 11.5H27.1867V13.8H57.9195V11.5Z" fill="white"/>
<path d="M27.1867 35.6499H20.0945V37.9499H27.1867V35.6499Z" fill="white"/>
<path d="M24.8227 40.2499H20.0945V42.5499H24.8227V40.2499Z" fill="white"/>
</g>
<defs>
<clipPath id="clip0">
<rect width="70.922" height="69" fill="white"/>
</clipPath>
</defs>
</svg>
