<?xml version="1.0" standalone="no"?>
<!DOCTYPE svg PUBLIC "-//W3C//DTD SVG 20010904//EN"
 "http://www.w3.org/TR/2001/REC-SVG-20010904/DTD/svg10.dtd">
<svg version="1.0" xmlns="http://www.w3.org/2000/svg"
 width="260.000000pt" height="260.000000pt" viewBox="0 0 260.000000 260.000000"
 preserveAspectRatio="xMidYMid meet">
<metadata>
Created by potrace 1.14, written by Peter Selinger 2001-2017
</metadata>
<g transform="translate(0.000000,260.000000) scale(0.100000,-0.100000)"
fill="#000000" stroke="none">
<path d="M840 1535 c-56 -12 -152 -52 -158 -67 -2 -4 -9 -8 -15 -8 -7 0 -25
-11 -41 -25 -16 -14 -32 -25 -35 -25 -3 0 -25 -18 -48 -39 -34 -32 -48 -39
-73 -36 -23 3 -33 -1 -42 -18 -7 -12 -11 -27 -10 -33 1 -6 -16 -30 -38 -53
-22 -22 -41 -47 -41 -54 -1 -6 -4 -25 -7 -42 -4 -16 -6 -76 -6 -132 0 -56 -2
-100 -5 -98 -4 2 -17 -3 -31 -11 l-25 -13 30 -2 c141 -7 1908 -13 2010 -7 53
3 65 36 29 75 -13 14 -24 33 -24 42 0 10 -4 21 -8 27 -13 14 -44 95 -49 129
-6 36 -10 43 -49 87 -28 32 -50 47 -124 83 -26 13 -86 25 -155 31 -43 4 -70 8
-125 18 -32 7 -71 10 -201 19 -39 3 -164 56 -204 87 -20 16 -135 58 -177 66
-69 12 -318 12 -378 -1z"/>
<path d="M2360 879 c0 -5 11 -9 25 -9 14 0 25 2 25 4 0 2 -11 6 -25 8 -14 3
-25 1 -25 -3z"/>
</g>
</svg>
