<?xml version="1.0" standalone="no"?>
<!DOCTYPE svg PUBLIC "-//W3C//DTD SVG 20010904//EN"
 "http://www.w3.org/TR/2001/REC-SVG-20010904/DTD/svg10.dtd">
<svg version="1.0" xmlns="http://www.w3.org/2000/svg"
 width="570.000000pt" height="570.000000pt" viewBox="0 0 570.000000 570.000000"
 preserveAspectRatio="xMidYMid meet">
<metadata>
Created by potrace 1.14, written by Peter Selinger 2001-2017
</metadata>
<g transform="translate(0.000000,570.000000) scale(0.100000,-0.100000)"
fill="#000000" stroke="none">
<path d="M3283 3323 c-18 -2 -33 -8 -33 -14 0 -5 -44 -9 -99 -9 -75 0 -103 -4
-115 -15 -8 -8 -26 -15 -40 -15 l-26 0 0 -440 0 -440 24 0 c13 0 26 -7 30 -15
4 -12 25 -15 101 -15 57 0 95 -4 95 -10 0 -6 57 -10 150 -10 93 0 150 4 150
10 0 6 25 10 55 10 40 0 57 4 61 15 4 9 19 15 39 15 20 0 35 6 39 15 3 8 17
15 31 15 16 0 25 6 25 15 0 8 7 15 15 15 8 0 15 7 15 15 0 8 7 15 15 15 9 0
15 9 15 25 0 14 5 25 10 25 6 0 10 107 10 300 0 169 -4 300 -9 300 -5 0 -12
11 -15 25 -4 14 -11 25 -16 25 -6 0 -10 6 -10 14 0 8 -11 17 -25 20 -14 4 -25
10 -25 15 0 5 -13 12 -30 16 -16 4 -30 11 -30 16 0 5 -13 9 -30 9 -20 0 -30 5
-30 15 0 12 -14 15 -64 15 -36 0 -66 5 -68 10 -4 12 -161 21 -215 13z m223
-148 c9 -8 33 -15 55 -15 21 0 39 -5 39 -10 0 -6 8 -14 18 -17 17 -7 29 -15
57 -41 23 -20 22 -532 0 -532 -8 0 -15 -7 -15 -15 0 -9 -9 -15 -25 -15 -16 0
-25 -6 -25 -15 0 -11 -12 -15 -44 -15 -27 0 -46 -5 -48 -12 -4 -10 -45 -13
-163 -13 -118 0 -159 3 -162 13 -3 7 -21 12 -44 12 l-39 0 0 330 0 330 55 0
c42 0 55 3 55 15 0 13 22 15 136 15 107 0 139 -3 150 -15z"/>
<path d="M1710 3285 c0 -8 -7 -15 -15 -15 -8 0 -15 -5 -15 -11 0 -14 -55 -69
-69 -69 -6 0 -11 -7 -11 -15 0 -8 -7 -15 -15 -15 -8 0 -15 -4 -15 -10 0 -5 18
-10 40 -10 l40 0 0 -85 c0 -67 3 -87 15 -91 11 -5 15 -22 15 -66 0 -39 5 -64
15 -74 8 -9 15 -29 15 -45 0 -16 4 -29 9 -29 5 0 11 -18 15 -40 3 -22 11 -40
16 -40 6 0 10 -11 10 -25 0 -14 7 -28 15 -31 8 -4 15 -17 15 -30 0 -15 6 -24
15 -24 8 0 15 -7 15 -15 0 -8 4 -15 9 -15 5 0 12 -11 15 -25 4 -14 11 -25 16
-25 6 0 10 -7 10 -15 0 -8 7 -15 15 -15 8 0 15 -4 15 -10 0 -5 14 -23 30 -40
17 -17 30 -37 30 -44 0 -16 35 -27 56 -19 8 3 17 16 20 29 3 13 12 24 20 24 8
0 14 5 14 11 0 7 11 22 25 35 14 13 25 32 25 44 0 11 7 20 15 20 8 0 15 7 15
15 0 8 4 15 9 15 5 0 12 11 15 25 6 24 26 36 26 15 0 -5 7 -10 15 -10 8 0 15
-9 15 -19 0 -11 7 -26 15 -35 8 -8 15 -19 15 -25 0 -6 4 -11 10 -11 5 0 12
-11 16 -25 3 -14 10 -25 15 -25 5 0 9 -7 9 -15 0 -8 7 -15 15 -15 8 0 15 -7
15 -15 0 -8 7 -15 15 -15 8 0 15 -4 15 -10 0 -5 11 -10 25 -10 14 0 25 5 25
10 0 6 7 10 15 10 8 0 15 7 15 15 0 8 7 15 15 15 8 0 15 7 15 15 0 8 4 15 10
15 5 0 12 11 16 25 3 14 10 25 15 25 5 0 9 7 9 15 0 8 7 15 15 15 8 0 15 7 15
15 0 8 4 15 10 15 5 0 12 11 16 25 3 14 10 25 14 25 5 0 11 14 15 30 4 17 10
30 15 30 4 0 11 11 14 25 4 14 11 25 16 25 6 0 10 18 10 39 0 25 5 41 15 45
10 3 15 19 15 45 0 23 5 41 13 43 8 3 13 35 15 96 2 51 8 92 12 92 5 0 10 19
12 43 3 37 6 42 28 43 50 1 50 2 50 68 0 60 -2 64 -25 70 -14 4 -25 11 -25 16
0 6 -40 10 -95 10 -78 0 -95 -3 -95 -15 0 -8 5 -15 10 -15 6 0 10 -38 10 -95
0 -57 -4 -95 -10 -95 -6 0 -10 -33 -10 -80 0 -62 -3 -82 -15 -86 -10 -4 -15
-20 -15 -45 0 -21 -4 -39 -10 -39 -5 0 -13 -18 -16 -40 -4 -22 -10 -40 -14
-40 -5 0 -11 -13 -15 -30 -4 -16 -11 -30 -16 -30 -5 0 -9 -11 -9 -25 0 -16 -6
-25 -15 -25 -8 0 -15 -7 -15 -15 0 -8 -4 -15 -10 -15 -5 0 -12 -11 -16 -25 -4
-18 -13 -25 -30 -25 -13 0 -24 5 -24 10 0 6 -7 10 -15 10 -8 0 -15 7 -15 15 0
8 -4 15 -10 15 -5 0 -13 18 -16 40 -4 22 -10 40 -14 40 -4 0 -10 19 -13 42 -3
24 -11 44 -16 46 -7 2 -11 40 -11 98 l0 94 -53 0 c-73 0 -87 -24 -87 -148 0
-71 -3 -91 -15 -96 -10 -3 -15 -19 -15 -46 0 -22 -4 -40 -10 -40 -5 0 -10 -7
-10 -15 0 -8 -6 -15 -14 -15 -8 0 -17 -11 -20 -25 -4 -17 -13 -25 -27 -25 -22
0 -49 22 -49 39 0 6 -7 11 -15 11 -9 0 -15 9 -15 25 0 16 -6 25 -15 25 -10 0
-15 10 -15 30 0 20 -5 30 -15 30 -10 0 -15 10 -15 30 0 17 -4 30 -9 30 -5 0
-11 18 -15 40 -3 22 -10 40 -15 40 -5 0 -11 23 -13 52 -3 29 -11 54 -17 56 -7
2 -11 55 -11 168 l0 164 -40 0 c-29 0 -40 -4 -40 -15z"/>
</g>
</svg>
